# xmcd
#
# Track frame offsets: 
#        150
#        11805
#        32905
#        48705
#        64943
#        72465
#        83179
#        94505
#
# Disc length: 1537 seconds
#
# Revision: 1
# Processed by: cddbd v1.5.2PL0 Copyright (c) Steve Scherf et al.
# Submitted via: ExactAudioCopy v1.0b4
#
DISCID=6d05ff08
DTITLE=Luther Allison - Underground
DYEAR=2007
DGENRE=Blues
TTITLE0=Hide Away
TTITLE1=Don't Start Me Talking 
TTITLE2=Drivin' Wheel
TTITLE3=Cut You Loose
TTITLE4=Easy Baby
TTITLE5=You're Gonna Miss Me
TTITLE6=Take My Love
TTITLE7=Rock Me Baby
EXTD=
EXTT0=
EXTT1=
EXTT2=
EXTT3=
EXTT4=
EXTT5=
EXTT6=
EXTT7=
PLAYORDER=
